<?xml version="1.0" encoding="UTF-8" standalone="no"?><svg xmlns="http://www.w3.org/2000/svg" xmlns:xlink="http://www.w3.org/1999/xlink" contentScriptType="application/ecmascript" contentStyleType="text/css" height="438px" preserveAspectRatio="none" style="width:674px;height:438px;" version="1.1" viewBox="0 0 674 438" width="674px" zoomAndPan="magnify"><defs><filter height="300%" id="f10l0e3hxx1u6s" width="300%" x="-1" y="-1"><feGaussianBlur result="blurOut" stdDeviation="2.0"/><feColorMatrix in="blurOut" result="blurOut2" type="matrix" values="0 0 0 0 0 0 0 0 0 0 0 0 0 0 0 0 0 0 .4 0"/><feOffset dx="4.0" dy="4.0" in="blurOut2" result="blurOut3"/><feBlend in="SourceGraphic" in2="blurOut3" mode="normal"/></filter></defs><g><rect fill="#FFFFFF" filter="url(#f10l0e3hxx1u6s)" height="34.1328" rx="12.5" ry="12.5" style="stroke: #000000; stroke-width: 1.5;" width="160" x="32" y="10"/><text fill="#000000" font-family="sans-serif" font-size="12" lengthAdjust="spacingAndGlyphs" textLength="140" x="42" y="31.6016">I want to transfer money</text><path d="M181.5,68.5439 L181.5,77.1992 L161.5,81.1992 L181.5,85.1992 L181.5,93.8545 A0,0 0 0 0 181.5,93.8545 L292.5,93.8545 A0,0 0 0 0 292.5,93.8545 L292.5,78.5439 L282.5,68.5439 L181.5,68.5439 A0,0 0 0 0 181.5,68.5439 " fill="#000000" filter="url(#f10l0e3hxx1u6s)" style="stroke: #000000; stroke-width: 1.0;"/><path d="M282.5,68.5439 L282.5,78.5439 L292.5,78.5439 L282.5,68.5439 " fill="#000000" style="stroke: #000000; stroke-width: 1.0;"/><text fill="#FFFFFF" font-family="monospace" font-size="13" font-weight="bold" lengthAdjust="spacingAndGlyphs" textLength="90" x="187.5" y="86.1123">GET /sources</text><polygon fill="#000000" filter="url(#f10l0e3hxx1u6s)" points="62.5,64.1328,161.5,64.1328,171.5,81.1992,161.5,98.2656,62.5,98.2656" style="stroke: #000000; stroke-width: 1.5;"/><text fill="#FFFFFF" font-family="sans-serif" font-size="12" font-weight="bold" lengthAdjust="spacingAndGlyphs" textLength="75" x="72.5" y="85.7344">List sources</text><text fill="#000000" font-family="sans-serif" font-size="12" lengthAdjust="spacingAndGlyphs" textLength="0" x="151.5" y="85.7344"/><rect fill="#FFFFFF" filter="url(#f10l0e3hxx1u6s)" height="34.1328" rx="12.5" ry="12.5" style="stroke: #000000; stroke-width: 1.5;" width="161" x="31.5" y="118.2656"/><text fill="#000000" font-family="sans-serif" font-size="12" lengthAdjust="spacingAndGlyphs" textLength="141" x="41.5" y="139.8672">I select a source account</text><path d="M224,176.8096 L224,185.4648 L204,189.4648 L224,193.4648 L224,202.1201 A0,0 0 0 0 224,202.1201 L662,202.1201 A0,0 0 0 0 662,202.1201 L662,186.8096 L652,176.8096 L224,176.8096 A0,0 0 0 0 224,176.8096 " fill="#000000" filter="url(#f10l0e3hxx1u6s)" style="stroke: #000000; stroke-width: 1.0;"/><path d="M652,176.8096 L652,186.8096 L662,186.8096 L652,176.8096 " fill="#000000" style="stroke: #000000; stroke-width: 1.0;"/><text fill="#FFFFFF" font-family="monospace" font-size="13" font-weight="bold" lengthAdjust="spacingAndGlyphs" textLength="417" x="230" y="194.3779">GET /sources/{selected source account number}/destinations</text><polygon fill="#000000" filter="url(#f10l0e3hxx1u6s)" points="20,172.3984,204,172.3984,214,189.4648,204,206.5313,20,206.5313" style="stroke: #000000; stroke-width: 1.5;"/><text fill="#FFFFFF" font-family="sans-serif" font-size="12" font-weight="bold" lengthAdjust="spacingAndGlyphs" textLength="160" x="30" y="194">List source's destinations</text><text fill="#000000" font-family="sans-serif" font-size="12" lengthAdjust="spacingAndGlyphs" textLength="0" x="194" y="194"/><rect fill="#FFFFFF" filter="url(#f10l0e3hxx1u6s)" height="34.1328" rx="12.5" ry="12.5" style="stroke: #000000; stroke-width: 1.5;" width="138" x="43" y="226.5313"/><text fill="#000000" font-family="sans-serif" font-size="12" lengthAdjust="spacingAndGlyphs" textLength="118" x="53" y="248.1328">I select a destination</text><rect fill="#FFFFFF" filter="url(#f10l0e3hxx1u6s)" height="34.1328" rx="12.5" ry="12.5" style="stroke: #000000; stroke-width: 1.5;" width="132" x="46" y="280.6641"/><text fill="#000000" font-family="sans-serif" font-size="12" lengthAdjust="spacingAndGlyphs" textLength="112" x="56" y="302.2656">I choose an amount</text><path d="M193,324.7969 L193,371.7285 L173,375.7285 L193,379.7285 L193,426.6602 A0,0 0 0 0 193,426.6602 L495,426.6602 A0,0 0 0 0 495,426.6602 L495,334.7969 L485,324.7969 L193,324.7969 A0,0 0 0 0 193,324.7969 " fill="#000000" filter="url(#f10l0e3hxx1u6s)" style="stroke: #000000; stroke-width: 1.0;"/><path d="M485,324.7969 L485,334.7969 L495,334.7969 L485,324.7969 " fill="#000000" style="stroke: #000000; stroke-width: 1.0;"/><text fill="#FFFFFF" font-family="monospace" font-size="13" font-weight="bold" lengthAdjust="spacingAndGlyphs" textLength="107" x="199" y="342.3652">POST /transfers</text><text fill="#FFFFFF" font-family="monospace" font-size="13" font-weight="bold" lengthAdjust="spacingAndGlyphs" textLength="5" x="199" y="357.6758">{</text><text fill="#FFFFFF" font-family="monospace" font-size="13" font-weight="bold" lengthAdjust="spacingAndGlyphs" textLength="268" x="207" y="372.9863">"source": "{selected source account id}",</text><text fill="#FFFFFF" font-family="monospace" font-size="13" font-weight="bold" lengthAdjust="spacingAndGlyphs" textLength="273" x="207" y="388.2969">"destination": "{selected destination id}",</text><text fill="#FFFFFF" font-family="monospace" font-size="13" font-weight="bold" lengthAdjust="spacingAndGlyphs" textLength="197" x="207" y="403.6074">"amount": "{chosen amount}"</text><text fill="#FFFFFF" font-family="monospace" font-size="13" font-weight="bold" lengthAdjust="spacingAndGlyphs" textLength="5" x="199" y="418.918">}</text><polygon fill="#000000" filter="url(#f10l0e3hxx1u6s)" points="51,358.6621,173,358.6621,183,375.7285,173,392.7949,51,392.7949" style="stroke: #000000; stroke-width: 1.5;"/><text fill="#FFFFFF" font-family="sans-serif" font-size="12" font-weight="bold" lengthAdjust="spacingAndGlyphs" textLength="98" x="61" y="380.2637">Transfer money</text><text fill="#000000" font-family="sans-serif" font-size="12" lengthAdjust="spacingAndGlyphs" textLength="0" x="163" y="380.2637"/><line style="stroke: #000000; stroke-width: 1.5;" x1="112" x2="112" y1="44.1328" y2="64.1328"/><polygon fill="#000000" points="108,54.1328,112,64.1328,116,54.1328,112,58.1328" style="stroke: #000000; stroke-width: 1.0;"/><line style="stroke: #000000; stroke-width: 1.5;" x1="112" x2="112" y1="98.2656" y2="118.2656"/><polygon fill="#000000" points="108,108.2656,112,118.2656,116,108.2656,112,112.2656" style="stroke: #000000; stroke-width: 1.0;"/><line style="stroke: #000000; stroke-width: 1.5;" x1="112" x2="112" y1="152.3984" y2="172.3984"/><polygon fill="#000000" points="108,162.3984,112,172.3984,116,162.3984,112,166.3984" style="stroke: #000000; stroke-width: 1.0;"/><line style="stroke: #000000; stroke-width: 1.5;" x1="112" x2="112" y1="206.5313" y2="226.5313"/><polygon fill="#000000" points="108,216.5313,112,226.5313,116,216.5313,112,220.5313" style="stroke: #000000; stroke-width: 1.0;"/><line style="stroke: #000000; stroke-width: 1.5;" x1="112" x2="112" y1="260.6641" y2="280.6641"/><polygon fill="#000000" points="108,270.6641,112,280.6641,116,270.6641,112,274.6641" style="stroke: #000000; stroke-width: 1.0;"/><line style="stroke: #000000; stroke-width: 1.5;" x1="112" x2="112" y1="314.7969" y2="358.6621"/><polygon fill="#000000" points="108,348.6621,112,358.6621,116,348.6621,112,352.6621" style="stroke: #000000; stroke-width: 1.0;"/><!--
@startuml

skinparam ActivityBackgroundColor white
skinparam ActivityBorderColor black
skinparam ArrowColor black
skinparam NoteBackgroundColor black
skinparam NoteBorderColor black
skinparam NoteFontName monospace
skinparam NoteFontStyle bold
skinparam NoteFontColor white

:I want to transfer money;
#Black:**<color white>List sources</color>** >
note right:GET /sources
:I select a source account;
#Black:**<color white>List source's destinations</color>** >
note right #black
GET /sources/{selected source account number}/destinations
end note
:I select a destination;
:I choose an amount;
#Black:**<color white>Transfer money</color>** >
note right
POST /transfers
{
  "source": "{selected source account id}",
  "destination": "{selected destination id}",
  "amount": "{chosen amount}"
}
end note

@enduml

PlantUML version 1.2019.03(Sun Mar 10 12:04:44 CET 2019)
(GPL source distribution)
Java Runtime: Java(TM) SE Runtime Environment
JVM: Java HotSpot(TM) 64-Bit Server VM
Java Version: 1.8.0_25-b17
Operating System: Mac OS X
OS Version: 10.14.3
Default Encoding: UTF-8
Language: en
Country: US
--></g></svg>